<svg xmlns="http://www.w3.org/2000/svg" data-id="SVG_INVITE__24" width="24" height="24" fill="none" viewBox="0 0 24 24"><path stroke="currentColor" d="M17.174 14.344v5.322m-2.661-2.661h5.322m-15.67 2.68a20.536 20.536 0 0 0 7.871 1.565m-.092-9.344a7.735 7.735 0 0 0-2.976.595 7.777 7.777 0 0 0-4.802 7.184"/><path stroke="currentColor" d="M16.018 7.837a4.07 4.07 0 0 1-4.07 4.07h-.01a4.07 4.07 0 0 1-4.068-4.07V6.82a4.07 4.07 0 0 1 4.069-4.069h.01a4.07 4.07 0 0 1 4.069 4.07v1.017z" clip-rule="evenodd"/></svg>