<svg xmlns="http://www.w3.org/2000/svg" data-id="SVG_CHECK_IN__16" width="16" height="16" fill="none" viewBox="0 0 16 16"><path stroke="currentColor" d="M1.703 8.565h3.288V5.277M.806 4.379l4.186 4.187"/><path stroke="currentColor" d="M1.703 10.67v2.45a1.5 1.5 0 0 0 1.5 1.5h11.225V4.01a1.5 1.5 0 0 0-1.5-1.5H1.703"/><path fill="currentColor" fill-rule="evenodd" d="M10.366 9.056h1.892V7.164h-1.892v1.892zm0 3.507h1.892V10.67h-1.892v1.893zm-3.247 0h1.893V10.67H7.119v1.893zm-3.245 0h1.892V10.67H3.874v1.893z" clip-rule="evenodd"/><path fill="currentColor" fill-rule="evenodd" d="M10.366 9.056h1.892V7.164h-1.892v1.892zm-3.247 0h1.893V7.164H7.119v1.892z" clip-rule="evenodd"/><path stroke="currentColor" d="M4.41.998v1.513M11.2.998v1.513m3.207 2.766H7.119"/></svg>