<svg xmlns="http://www.w3.org/2000/svg" data-id="SVG_GROUP__24" width="24" height="24" fill="none" viewBox="0 0 24 24"><path stroke="currentColor" d="M2 19.835a18.625 18.625 0 0 0 7.113 1.415 18.613 18.613 0 0 0 7.114-1.415m6.396-2.986c-.943.39-1.917.7-2.91.925m-3.486 1.963a7.108 7.108 0 0 0-2.083-5.03 7.15 7.15 0 0 0-2.308-1.542 7.139 7.139 0 0 0-2.722-.54c-.466 0-.931.045-1.388.135a7.162 7.162 0 0 0-2.564 1.062 7.084 7.084 0 0 0-1.963 1.963c-.259.388-.479.8-.658 1.23A7.108 7.108 0 0 0 2 19.737"/><path stroke="currentColor" d="M12.416 9.324a3.3 3.3 0 0 1-3.298 3.3H9.11a3.299 3.299 0 0 1-3.298-3.3V8.5c0-1.822 1.476-3.3 3.298-3.3h.008a3.3 3.3 0 0 1 3.298 3.3v.824z" clip-rule="evenodd"/><path stroke="currentColor" d="M15.72 9.95c1.995 0 3.974.86 5.338 2.523a6.872 6.872 0 0 1 1.565 4.375M15.72 9.95h.007a3.2 3.2 0 0 0 3.2-3.2v-.8a3.2 3.2 0 0 0-3.2-3.2h-.007a3.2 3.2 0 0 0-2.388 1.068"/></svg>