<svg xmlns="http://www.w3.org/2000/svg" data-id="SVG_PERSON__24" width="24" height="24" fill="none" viewBox="0 0 24 24"><path stroke="currentColor" d="M4.129 19.685a20.558 20.558 0 0 0 11.884 1.17 20.558 20.558 0 0 0 3.858-1.17"/><path stroke="currentColor" d="M11.907 11.906c-.992 0-2.002.19-2.976.595a7.777 7.777 0 0 0-4.802 7.184m7.964-7.779a7.78 7.78 0 0 1 7.778 7.778"/><path stroke="currentColor" d="M15.982 7.837a4.07 4.07 0 0 1-4.07 4.07h-.01a4.07 4.07 0 0 1-4.068-4.07V6.82a4.07 4.07 0 0 1 4.069-4.069h.01a4.07 4.07 0 0 1 4.069 4.07v1.017z" clip-rule="evenodd"/></svg>