<svg xmlns="http://www.w3.org/2000/svg" data-id="SVG_CHECK_OUT__24" width="24" height="24" fill="none" viewBox="0 0 24 24"><path stroke="currentColor" d="M16.044 8.612h4.345v3.792m-4.473.523 4.476-4.16"/><path stroke="currentColor" d="M20.407 15.394v5.219H5.094a1.5 1.5 0 0 1-1.5-1.5V4.612h16.813"/><path fill="currentColor" fill-rule="evenodd" d="M6.594 13.112h2.5v-2.5h-2.5v2.5zm0 5h2.5v-2.5h-2.5v2.5zm4.406 0h2.5v-2.5H11v2.5zm4.594 0h2.5v-2.5h-2.5v2.5z" clip-rule="evenodd"/><path fill="currentColor" fill-rule="evenodd" d="M6.594 13.112h2.5v-2.5h-2.5v2.5zm4.406 0h2.5v-2.5H11v2.5z" clip-rule="evenodd"/><path stroke="currentColor" d="M17.593 2.612V4.61M8.594 2.612V4.61m-4 4.002h8.849"/></svg>